<svg width="150" height="150" viewBox="0 0 150 150" fill="none" xmlns="http://www.w3.org/2000/svg">
<rect width="150" height="150" rx="75" fill="white"/>
<path d="M133.18 81.9732C132.979 81.9732 132.796 82.1035 132.702 82.376C131.492 85.8419 129.858 87.9036 128.513 87.9036C127.74 87.9036 127.427 87.0387 127.427 85.682C127.427 82.2872 129.451 75.0889 130.472 71.8067C130.59 71.4097 130.666 71.0543 130.666 70.7521C130.666 69.7983 130.147 69.3302 128.861 69.3302C127.475 69.3302 125.982 69.8753 124.53 72.4287C124.029 70.1775 122.513 69.194 120.395 69.194C117.946 69.194 115.58 70.7758 113.633 73.3412C111.686 75.9064 109.397 76.7478 107.674 76.333C108.913 73.2878 109.373 71.0128 109.373 69.3243C109.373 66.676 108.069 65.0764 105.963 65.0764C102.759 65.0764 100.913 68.1453 100.913 71.3742C100.913 73.8684 102.04 76.4337 104.518 77.6779C102.441 82.3938 99.4081 86.6595 98.2576 86.6595C96.771 86.6595 96.3343 79.3546 96.417 74.1291C96.4702 71.1312 96.7178 70.9773 96.7178 70.0708C96.7178 69.5494 96.3817 69.194 95.0305 69.194C91.8798 69.194 90.9063 71.8718 90.7588 74.9467C90.7114 76.1152 90.5291 77.2742 90.2162 78.4007C88.9003 83.1166 86.1863 86.6951 84.4163 86.6951C83.5961 86.6951 83.3722 85.8715 83.3722 84.7932C83.3722 81.3985 85.266 77.1565 85.266 73.5367C85.266 70.8765 84.1039 69.194 81.9146 69.194C79.3365 69.194 75.9261 72.2747 72.699 78.0452C73.761 73.6255 74.1977 69.348 71.0529 69.348C70.3707 69.3582 69.7009 69.533 69.1 69.8575C68.8982 69.9522 68.7296 70.1057 68.616 70.2981C68.5023 70.4903 68.4489 70.7125 68.4628 70.9358C68.7637 75.6399 64.6868 87.6904 60.8223 87.6904C60.1202 87.6904 59.778 86.9261 59.778 85.6938C59.778 82.2931 61.7958 75.1125 62.8106 71.8244C62.9404 71.3979 63.0112 71.0306 63.0112 70.7106C63.0112 69.8101 62.4566 69.348 61.1999 69.348C59.8193 69.348 58.3207 69.8753 56.8752 72.4287C56.3678 70.1775 54.8515 69.194 52.7334 69.194C49.2583 69.194 45.3761 72.8849 43.671 77.6957C41.3877 84.1179 36.7857 90.3208 30.5907 90.3208C24.968 90.3208 22.0003 85.6227 22.0003 78.1993C22.0003 67.4818 29.8355 58.7253 35.647 58.7253C38.4259 58.7253 39.7534 60.5026 39.7534 63.228C39.7534 66.5279 37.9185 68.0624 37.9185 69.3184C37.9185 69.7034 38.2371 70.0826 38.8684 70.0826C41.3936 70.0826 44.3672 67.1026 44.3672 63.0384C44.3672 58.9741 41.0809 56 35.2694 56C25.6642 56 16 65.7044 16 78.14C16 88.034 20.8616 94 29.2691 94C35.0039 94 40.013 89.521 42.7152 84.2956C43.022 88.6264 44.9808 90.8896 47.9662 90.8896C50.6212 90.8896 52.7688 89.3019 54.409 86.5114C55.0403 89.4322 56.7159 90.86 58.893 90.86C61.3887 90.86 63.4773 89.2722 65.4656 86.3218C65.4361 88.6383 65.9612 90.8185 67.9613 90.8185C68.9053 90.8185 70.0322 90.5993 70.2328 89.7699C72.3391 81.0253 77.5428 73.8862 79.1358 73.8862C79.6078 73.8862 79.7379 74.3424 79.7379 74.8815C79.7379 77.2573 78.068 82.1272 78.068 85.2376C78.068 88.5968 79.4898 90.8185 82.4282 90.8185C85.6848 90.8185 88.9946 86.8136 91.2013 80.9601C91.8919 86.4284 93.3843 90.8422 95.7206 90.8422C98.5884 90.8422 103.68 84.7814 106.766 78.3652C107.975 78.5192 109.792 78.4777 111.539 77.2395C110.795 79.1294 110.359 81.1971 110.359 83.2647C110.359 89.2189 113.191 90.8896 115.627 90.8896C118.276 90.8896 120.424 89.3019 122.07 86.5114C122.613 89.0293 124 90.8541 126.548 90.8541C130.537 90.8541 134 86.7602 134 83.401C134 82.5123 133.622 81.9732 133.18 81.9732ZM50.397 87.5896C48.7863 87.5896 48.155 85.9604 48.155 83.5314C48.155 79.3131 51.0283 72.2688 54.0668 72.2688C55.3943 72.2688 55.8958 73.8388 55.8958 75.7584C55.8958 80.0418 53.1641 87.5896 50.397 87.5896ZM105.568 75C104.606 73.8506 104.258 72.2866 104.258 70.8943C104.258 69.1762 104.883 67.7246 105.633 67.7246C106.382 67.7246 106.612 68.4652 106.612 69.4961C106.612 71.2202 105.999 73.738 105.568 75ZM118.058 87.5896C116.448 87.5896 115.816 85.7175 115.816 83.5314C115.816 79.4612 118.689 72.2688 121.752 72.2688C123.079 72.2688 123.551 73.827 123.551 75.7584C123.551 80.0418 120.867 87.5896 118.058 87.5896Z" fill="url(#paint0_linear_102_724)"/>
<defs>
<linearGradient id="paint0_linear_102_724" x1="27.2794" y1="56" x2="134.168" y2="86.0939" gradientUnits="userSpaceOnUse">
<stop stop-color="#00BBC6"/>
<stop offset="0.489354" stop-color="#355AE4"/>
<stop offset="1" stop-color="#7225E3"/>
</linearGradient>
</defs>
</svg>
